<svg width="415" height="130" viewBox="0 0 415 130" fill="none" xmlns="http://www.w3.org/2000/svg">
<rect width="415" height="130" rx="10" fill="url(#paint0_linear_689_444)"/>
<rect x="3" y="3" width="409" height="124.266" rx="8" fill="#DCDCDC" style="mix-blend-mode:multiply"/>
<path d="M27.26 37.2393C26.14 37.2393 25.0667 37.0926 24.04 36.7993C23.0133 36.4926 22.1867 36.0993 21.56 35.6193L22.66 33.1793C23.26 33.6059 23.9667 33.9593 24.78 34.2393C25.6067 34.5059 26.44 34.6393 27.28 34.6393C27.92 34.6393 28.4333 34.5793 28.82 34.4593C29.22 34.3259 29.5133 34.1459 29.7 33.9193C29.8867 33.6926 29.98 33.4326 29.98 33.1393C29.98 32.7659 29.8333 32.4726 29.54 32.2593C29.2467 32.0326 28.86 31.8526 28.38 31.7193C27.9 31.5726 27.3667 31.4393 26.78 31.3193C26.2067 31.1859 25.6267 31.0259 25.04 30.8393C24.4667 30.6526 23.94 30.4126 23.46 30.1193C22.98 29.8259 22.5867 29.4393 22.28 28.9593C21.9867 28.4793 21.84 27.8659 21.84 27.1193C21.84 26.3193 22.0533 25.5926 22.48 24.9393C22.92 24.2726 23.5733 23.7459 24.44 23.3593C25.32 22.9593 26.42 22.7593 27.74 22.7593C28.62 22.7593 29.4867 22.8659 30.34 23.0793C31.1933 23.2793 31.9467 23.5859 32.6 23.9993L31.6 26.4593C30.9467 26.0859 30.2933 25.8126 29.64 25.6393C28.9867 25.4526 28.3467 25.3593 27.72 25.3593C27.0933 25.3593 26.58 25.4326 26.18 25.5793C25.78 25.7259 25.4933 25.9193 25.32 26.1593C25.1467 26.3859 25.06 26.6526 25.06 26.9593C25.06 27.3193 25.2067 27.6126 25.5 27.8393C25.7933 28.0526 26.18 28.2259 26.66 28.3593C27.14 28.4926 27.6667 28.6259 28.24 28.7593C28.8267 28.8926 29.4067 29.0459 29.98 29.2193C30.5667 29.3926 31.1 29.6259 31.58 29.9193C32.06 30.2126 32.4467 30.5993 32.74 31.0793C33.0467 31.5593 33.2 32.1659 33.2 32.8993C33.2 33.6859 32.98 34.4059 32.54 35.0593C32.1 35.7126 31.44 36.2393 30.56 36.6393C29.6933 37.0393 28.5933 37.2393 27.26 37.2393ZM39.5939 37.1593C38.3272 37.1593 37.3406 36.8393 36.6339 36.1993C35.9272 35.5459 35.5739 34.5793 35.5739 33.2993V23.8593H38.6939V33.2593C38.6939 33.7126 38.8139 34.0659 39.0539 34.3193C39.2939 34.5593 39.6206 34.6793 40.0339 34.6793C40.5272 34.6793 40.9472 34.5459 41.2939 34.2793L42.1339 36.4793C41.8139 36.7059 41.4272 36.8793 40.9739 36.9993C40.5339 37.1059 40.0739 37.1593 39.5939 37.1593ZM33.9139 28.8793V26.4793H41.3739V28.8793H33.9139ZM50.4853 36.9993V34.8993L50.2853 34.4393V30.6793C50.2853 30.0126 50.0786 29.4926 49.6653 29.1193C49.2653 28.7459 48.6453 28.5593 47.8053 28.5593C47.232 28.5593 46.6653 28.6526 46.1053 28.8393C45.5586 29.0126 45.092 29.2526 44.7053 29.5593L43.5853 27.3793C44.172 26.9659 44.8786 26.6459 45.7053 26.4193C46.532 26.1926 47.372 26.0793 48.2253 26.0793C49.8653 26.0793 51.1386 26.4659 52.0453 27.2393C52.952 28.0126 53.4053 29.2193 53.4053 30.8593V36.9993H50.4853ZM47.2053 37.1593C46.3653 37.1593 45.6453 37.0193 45.0453 36.7393C44.4453 36.4459 43.9853 36.0526 43.6653 35.5593C43.3453 35.0659 43.1853 34.5126 43.1853 33.8993C43.1853 33.2593 43.3386 32.6993 43.6453 32.2193C43.9653 31.7393 44.4653 31.3659 45.1453 31.0993C45.8253 30.8193 46.712 30.6793 47.8053 30.6793H50.6653V32.4993H48.1453C47.412 32.4993 46.9053 32.6193 46.6253 32.8593C46.3586 33.0993 46.2253 33.3993 46.2253 33.7593C46.2253 34.1593 46.3786 34.4793 46.6853 34.7193C47.0053 34.9459 47.4386 35.0593 47.9853 35.0593C48.5053 35.0593 48.972 34.9393 49.3853 34.6993C49.7986 34.4459 50.0986 34.0793 50.2853 33.5993L50.7653 35.0393C50.5386 35.7326 50.1253 36.2593 49.5253 36.6193C48.9253 36.9793 48.152 37.1593 47.2053 37.1593ZM57.3938 41.0393C56.8338 41.0393 56.2804 40.9526 55.7338 40.7793C55.1871 40.6059 54.7404 40.3659 54.3937 40.0593L55.5338 37.8393C55.7738 38.0526 56.0471 38.2193 56.3538 38.3393C56.6738 38.4593 56.9871 38.5193 57.2938 38.5193C57.7338 38.5193 58.0804 38.4126 58.3338 38.1993C58.6004 37.9993 58.8404 37.6593 59.0538 37.1793L59.6138 35.8593L59.8538 35.5193L63.7138 26.2393H66.7138L61.8538 37.6593C61.5071 38.5259 61.1071 39.2059 60.6538 39.6993C60.2138 40.1926 59.7204 40.5393 59.1738 40.7393C58.6404 40.9393 58.0471 41.0393 57.3938 41.0393ZM59.2338 37.4193L54.4337 26.2393H57.6538L61.3738 35.2393L59.2338 37.4193ZM78.1909 37.1593C77.2976 37.1593 76.4976 36.9859 75.7909 36.6393C75.0976 36.2926 74.5576 35.7659 74.1709 35.0593C73.7843 34.3393 73.5909 33.4259 73.5909 32.3193V26.2393H76.7109V31.8593C76.7109 32.7526 76.8976 33.4126 77.2709 33.8393C77.6576 34.2526 78.1976 34.4593 78.8909 34.4593C79.3709 34.4593 79.7976 34.3593 80.1709 34.1593C80.5443 33.9459 80.8376 33.6259 81.0509 33.1993C81.2643 32.7593 81.3709 32.2126 81.3709 31.5593V26.2393H84.4909V36.9993H81.5309V34.0393L82.0709 34.8993C81.7109 35.6459 81.1776 36.2126 80.4709 36.5993C79.7776 36.9726 79.0176 37.1593 78.1909 37.1593ZM93.7414 37.1593C92.8347 37.1593 92.0414 36.9593 91.3614 36.5593C90.6814 36.1593 90.1481 35.5526 89.7614 34.7393C89.3881 33.9126 89.2014 32.8726 89.2014 31.6193C89.2014 30.3526 89.3814 29.3126 89.7414 28.4993C90.1014 27.6859 90.6214 27.0793 91.3014 26.6793C91.9814 26.2793 92.7947 26.0793 93.7414 26.0793C94.7547 26.0793 95.6614 26.3126 96.4614 26.7793C97.2747 27.2326 97.9147 27.8726 98.3814 28.6993C98.8614 29.5259 99.1014 30.4993 99.1014 31.6193C99.1014 32.7526 98.8614 33.7326 98.3814 34.5593C97.9147 35.3859 97.2747 36.0259 96.4614 36.4793C95.6614 36.9326 94.7547 37.1593 93.7414 37.1593ZM87.3814 40.8793V26.2393H90.3614V28.4393L90.3014 31.6393L90.5014 34.8193V40.8793H87.3814ZM93.2014 34.5993C93.7214 34.5993 94.1814 34.4793 94.5814 34.2393C94.9947 33.9993 95.3214 33.6593 95.5614 33.2193C95.8147 32.7659 95.9414 32.2326 95.9414 31.6193C95.9414 30.9926 95.8147 30.4593 95.5614 30.0193C95.3214 29.5793 94.9947 29.2393 94.5814 28.9993C94.1814 28.7593 93.7214 28.6393 93.2014 28.6393C92.6814 28.6393 92.2147 28.7593 91.8014 28.9993C91.3881 29.2393 91.0614 29.5793 90.8214 30.0193C90.5814 30.4593 90.4614 30.9926 90.4614 31.6193C90.4614 32.2326 90.5814 32.7659 90.8214 33.2193C91.0614 33.6593 91.3881 33.9993 91.8014 34.2393C92.2147 34.4793 92.6814 34.5993 93.2014 34.5993ZM100.985 32.6193V30.1193H106.645V32.6193H100.985ZM113.695 37.1593C112.429 37.1593 111.442 36.8393 110.735 36.1993C110.029 35.5459 109.675 34.5793 109.675 33.2993V23.8593H112.795V33.2593C112.795 33.7126 112.915 34.0659 113.155 34.3193C113.395 34.5593 113.722 34.6793 114.135 34.6793C114.629 34.6793 115.049 34.5459 115.395 34.2793L116.235 36.4793C115.915 36.7059 115.529 36.8793 115.075 36.9993C114.635 37.1059 114.175 37.1593 113.695 37.1593ZM108.015 28.8793V26.4793H115.475V28.8793H108.015ZM122.775 37.1593C121.628 37.1593 120.608 36.9193 119.715 36.4393C118.835 35.9593 118.135 35.3059 117.615 34.4793C117.108 33.6393 116.855 32.6859 116.855 31.6193C116.855 30.5393 117.108 29.5859 117.615 28.7593C118.135 27.9193 118.835 27.2659 119.715 26.7993C120.608 26.3193 121.628 26.0793 122.775 26.0793C123.908 26.0793 124.922 26.3193 125.815 26.7993C126.708 27.2659 127.408 27.9126 127.915 28.7393C128.422 29.5659 128.675 30.5259 128.675 31.6193C128.675 32.6859 128.422 33.6393 127.915 34.4793C127.408 35.3059 126.708 35.9593 125.815 36.4393C124.922 36.9193 123.908 37.1593 122.775 37.1593ZM122.775 34.5993C123.295 34.5993 123.762 34.4793 124.175 34.2393C124.588 33.9993 124.915 33.6593 125.155 33.2193C125.395 32.7659 125.515 32.2326 125.515 31.6193C125.515 30.9926 125.395 30.4593 125.155 30.0193C124.915 29.5793 124.588 29.2393 124.175 28.9993C123.762 28.7593 123.295 28.6393 122.775 28.6393C122.255 28.6393 121.788 28.7593 121.375 28.9993C120.962 29.2393 120.628 29.5793 120.375 30.0193C120.135 30.4593 120.015 30.9926 120.015 31.6193C120.015 32.2326 120.135 32.7659 120.375 33.2193C120.628 33.6593 120.962 33.9993 121.375 34.2393C121.788 34.4793 122.255 34.5993 122.775 34.5993ZM130.556 32.6193V30.1193H136.216V32.6193H130.556ZM143.486 37.1593C142.472 37.1593 141.559 36.9326 140.746 36.4793C139.932 36.0126 139.286 35.3659 138.806 34.5393C138.339 33.7126 138.106 32.7393 138.106 31.6193C138.106 30.4859 138.339 29.5059 138.806 28.6793C139.286 27.8526 139.932 27.2126 140.746 26.7593C141.559 26.3059 142.472 26.0793 143.486 26.0793C144.392 26.0793 145.186 26.2793 145.866 26.6793C146.546 27.0793 147.072 27.6859 147.446 28.4993C147.819 29.3126 148.006 30.3526 148.006 31.6193C148.006 32.8726 147.826 33.9126 147.466 34.7393C147.106 35.5526 146.586 36.1593 145.906 36.5593C145.239 36.9593 144.432 37.1593 143.486 37.1593ZM144.026 34.5993C144.532 34.5993 144.992 34.4793 145.406 34.2393C145.819 33.9993 146.146 33.6593 146.386 33.2193C146.639 32.7659 146.766 32.2326 146.766 31.6193C146.766 30.9926 146.639 30.4593 146.386 30.0193C146.146 29.5793 145.819 29.2393 145.406 28.9993C144.992 28.7593 144.532 28.6393 144.026 28.6393C143.506 28.6393 143.039 28.7593 142.626 28.9993C142.212 29.2393 141.879 29.5793 141.626 30.0193C141.386 30.4593 141.266 30.9926 141.266 31.6193C141.266 32.2326 141.386 32.7659 141.626 33.2193C141.879 33.6593 142.212 33.9993 142.626 34.2393C143.039 34.4793 143.506 34.5993 144.026 34.5993ZM146.846 36.9993V34.7993L146.906 31.5993L146.706 28.4193V22.1593H149.826V36.9993H146.846ZM159.313 36.9993V34.8993L159.113 34.4393V30.6793C159.113 30.0126 158.907 29.4926 158.493 29.1193C158.093 28.7459 157.473 28.5593 156.633 28.5593C156.06 28.5593 155.493 28.6526 154.933 28.8393C154.387 29.0126 153.92 29.2526 153.533 29.5593L152.413 27.3793C153 26.9659 153.707 26.6459 154.533 26.4193C155.36 26.1926 156.2 26.0793 157.053 26.0793C158.693 26.0793 159.967 26.4659 160.873 27.2393C161.78 28.0126 162.233 29.2193 162.233 30.8593V36.9993H159.313ZM156.033 37.1593C155.193 37.1593 154.473 37.0193 153.873 36.7393C153.273 36.4459 152.813 36.0526 152.493 35.5593C152.173 35.0659 152.013 34.5126 152.013 33.8993C152.013 33.2593 152.167 32.6993 152.473 32.2193C152.793 31.7393 153.293 31.3659 153.973 31.0993C154.653 30.8193 155.54 30.6793 156.633 30.6793H159.493V32.4993H156.973C156.24 32.4993 155.733 32.6193 155.453 32.8593C155.187 33.0993 155.053 33.3993 155.053 33.7593C155.053 34.1593 155.207 34.4793 155.513 34.7193C155.833 34.9459 156.267 35.0593 156.813 35.0593C157.333 35.0593 157.8 34.9393 158.213 34.6993C158.627 34.4459 158.927 34.0793 159.113 33.5993L159.593 35.0393C159.367 35.7326 158.953 36.2593 158.353 36.6193C157.753 36.9793 156.98 37.1593 156.033 37.1593ZM169.457 37.1593C168.191 37.1593 167.204 36.8393 166.497 36.1993C165.791 35.5459 165.437 34.5793 165.437 33.2993V23.8593H168.557V33.2593C168.557 33.7126 168.677 34.0659 168.917 34.3193C169.157 34.5593 169.484 34.6793 169.897 34.6793C170.391 34.6793 170.811 34.5459 171.157 34.2793L171.997 36.4793C171.677 36.7059 171.291 36.8793 170.837 36.9993C170.397 37.1059 169.937 37.1593 169.457 37.1593ZM163.777 28.8793V26.4793H171.237V28.8793H163.777ZM178.757 37.1593C177.53 37.1593 176.45 36.9193 175.517 36.4393C174.597 35.9593 173.883 35.3059 173.377 34.4793C172.87 33.6393 172.617 32.6859 172.617 31.6193C172.617 30.5393 172.863 29.5859 173.357 28.7593C173.863 27.9193 174.55 27.2659 175.417 26.7993C176.283 26.3193 177.263 26.0793 178.357 26.0793C179.41 26.0793 180.357 26.3059 181.197 26.7593C182.05 27.1993 182.723 27.8393 183.217 28.6793C183.71 29.5059 183.957 30.4993 183.957 31.6593C183.957 31.7793 183.95 31.9193 183.937 32.0793C183.923 32.2259 183.91 32.3659 183.897 32.4993H175.157V30.6793H182.257L181.057 31.2193C181.057 30.6593 180.943 30.1726 180.717 29.7593C180.49 29.3459 180.177 29.0259 179.777 28.7993C179.377 28.5593 178.91 28.4393 178.377 28.4393C177.843 28.4393 177.37 28.5593 176.957 28.7993C176.557 29.0259 176.243 29.3526 176.017 29.7793C175.79 30.1926 175.677 30.6859 175.677 31.2593V31.7393C175.677 32.3259 175.803 32.8459 176.057 33.2993C176.323 33.7393 176.69 34.0793 177.157 34.3193C177.637 34.5459 178.197 34.6593 178.837 34.6593C179.41 34.6593 179.91 34.5726 180.337 34.3993C180.777 34.2259 181.177 33.9659 181.537 33.6193L183.197 35.4193C182.703 35.9793 182.083 36.4126 181.337 36.7193C180.59 37.0126 179.73 37.1593 178.757 37.1593Z" fill="black"/>
<path d="M24.12 63L21.016 54.392H23.368L25.944 61.8H24.824L27.512 54.392H29.624L32.232 61.8H31.112L33.768 54.392H35.976L32.856 63H30.44L28.152 56.648H28.888L26.52 63H24.12ZM37.1364 63V54.392H39.6324V63H37.1364ZM38.3844 53.192C37.9257 53.192 37.5524 53.0587 37.2644 52.792C36.9764 52.5253 36.8324 52.1947 36.8324 51.8C36.8324 51.4053 36.9764 51.0747 37.2644 50.808C37.5524 50.5413 37.9257 50.408 38.3844 50.408C38.843 50.408 39.2164 50.536 39.5044 50.792C39.7924 51.0373 39.9364 51.3573 39.9364 51.752C39.9364 52.168 39.7924 52.5147 39.5044 52.792C39.227 53.0587 38.8537 53.192 38.3844 53.192ZM45.4689 63.128C44.4555 63.128 43.6662 62.872 43.1009 62.36C42.5355 61.8373 42.2529 61.064 42.2529 60.04V52.488H44.7489V60.008C44.7489 60.3707 44.8449 60.6533 45.0369 60.856C45.2289 61.048 45.4902 61.144 45.8209 61.144C46.2155 61.144 46.5515 61.0373 46.8289 60.824L47.5009 62.584C47.2449 62.7653 46.9355 62.904 46.5729 63C46.2209 63.0853 45.8529 63.128 45.4689 63.128ZM40.9249 56.504V54.584H46.8929V56.504H40.9249ZM54.134 54.264C54.8167 54.264 55.4247 54.4027 55.958 54.68C56.502 54.9467 56.9287 55.3627 57.238 55.928C57.5473 56.4827 57.702 57.1973 57.702 58.072V63H55.206V58.456C55.206 57.7627 55.0513 57.2507 54.742 56.92C54.4433 56.5893 54.0167 56.424 53.462 56.424C53.0673 56.424 52.71 56.5093 52.39 56.68C52.0807 56.84 51.8353 57.0907 51.654 57.432C51.4833 57.7733 51.398 58.2107 51.398 58.744V63H48.902V51.128H51.398V56.776L50.838 56.056C51.1473 55.48 51.59 55.0373 52.166 54.728C52.742 54.4187 53.398 54.264 54.134 54.264ZM68.0158 63.128C67.0024 63.128 66.2131 62.872 65.6478 62.36C65.0824 61.8373 64.7998 61.064 64.7998 60.04V52.488H67.2958V60.008C67.2958 60.3707 67.3918 60.6533 67.5838 60.856C67.7758 61.048 68.0371 61.144 68.3678 61.144C68.7624 61.144 69.0984 61.0373 69.3758 60.824L70.0478 62.584C69.7918 62.7653 69.4824 62.904 69.1198 63C68.7678 63.0853 68.3998 63.128 68.0158 63.128ZM63.4718 56.504V54.584H69.4398V56.504H63.4718ZM76.6809 54.264C77.3635 54.264 77.9715 54.4027 78.5049 54.68C79.0489 54.9467 79.4755 55.3627 79.7849 55.928C80.0942 56.4827 80.2489 57.1973 80.2489 58.072V63H77.7529V58.456C77.7529 57.7627 77.5982 57.2507 77.2889 56.92C76.9902 56.5893 76.5635 56.424 76.0089 56.424C75.6142 56.424 75.2569 56.5093 74.9369 56.68C74.6275 56.84 74.3822 57.0907 74.2009 57.432C74.0302 57.7733 73.9449 58.2107 73.9449 58.744V63H71.4489V51.128H73.9449V56.776L73.3849 56.056C73.6942 55.48 74.1369 55.0373 74.7129 54.728C75.2889 54.4187 75.9449 54.264 76.6809 54.264ZM86.8459 63.128C85.8645 63.128 85.0005 62.936 84.2539 62.552C83.5179 62.168 82.9472 61.6453 82.5419 60.984C82.1365 60.312 81.9339 59.5493 81.9339 58.696C81.9339 57.832 82.1312 57.0693 82.5259 56.408C82.9312 55.736 83.4805 55.2133 84.1739 54.84C84.8672 54.456 85.6512 54.264 86.5259 54.264C87.3685 54.264 88.1259 54.4453 88.7979 54.808C89.4805 55.16 90.0192 55.672 90.4139 56.344C90.8085 57.0053 91.0059 57.8 91.0059 58.728C91.0059 58.824 91.0005 58.936 90.9899 59.064C90.9792 59.1813 90.9685 59.2933 90.9579 59.4H83.9659V57.944H89.6459L88.6859 58.376C88.6859 57.928 88.5952 57.5387 88.4139 57.208C88.2325 56.8773 87.9819 56.6213 87.6619 56.44C87.3419 56.248 86.9685 56.152 86.5419 56.152C86.1152 56.152 85.7365 56.248 85.4059 56.44C85.0859 56.6213 84.8352 56.8827 84.6539 57.224C84.4725 57.5547 84.3819 57.9493 84.3819 58.408V58.792C84.3819 59.2613 84.4832 59.6773 84.6859 60.04C84.8992 60.392 85.1925 60.664 85.5659 60.856C85.9499 61.0373 86.3979 61.128 86.9099 61.128C87.3685 61.128 87.7685 61.0587 88.1099 60.92C88.4619 60.7813 88.7819 60.5733 89.0699 60.296L90.3979 61.736C90.0032 62.184 89.5072 62.5307 88.9099 62.776C88.3125 63.0107 87.6245 63.128 86.8459 63.128ZM97.1989 63V51.128H99.6949V63H97.1989ZM107.291 63V61.32L107.131 60.952V57.944C107.131 57.4107 106.966 56.9947 106.635 56.696C106.315 56.3973 105.819 56.248 105.147 56.248C104.689 56.248 104.235 56.3227 103.787 56.472C103.35 56.6107 102.977 56.8027 102.667 57.048L101.771 55.304C102.241 54.9733 102.806 54.7173 103.467 54.536C104.129 54.3547 104.801 54.264 105.483 54.264C106.795 54.264 107.814 54.5733 108.539 55.192C109.265 55.8107 109.627 56.776 109.627 58.088V63H107.291ZM104.667 63.128C103.995 63.128 103.419 63.016 102.939 62.792C102.459 62.5573 102.091 62.2427 101.835 61.848C101.579 61.4533 101.451 61.0107 101.451 60.52C101.451 60.008 101.574 59.56 101.819 59.176C102.075 58.792 102.475 58.4933 103.019 58.28C103.563 58.056 104.273 57.944 105.147 57.944H107.435V59.4H105.419C104.833 59.4 104.427 59.496 104.203 59.688C103.99 59.88 103.883 60.12 103.883 60.408C103.883 60.728 104.006 60.984 104.251 61.176C104.507 61.3573 104.854 61.448 105.291 61.448C105.707 61.448 106.081 61.352 106.411 61.16C106.742 60.9573 106.982 60.664 107.131 60.28L107.515 61.432C107.334 61.9867 107.003 62.408 106.523 62.696C106.043 62.984 105.425 63.128 104.667 63.128ZM115.406 63.128C114.393 63.128 113.604 62.872 113.038 62.36C112.473 61.8373 112.19 61.064 112.19 60.04V52.488H114.686V60.008C114.686 60.3707 114.782 60.6533 114.974 60.856C115.166 61.048 115.428 61.144 115.758 61.144C116.153 61.144 116.489 61.0373 116.766 60.824L117.438 62.584C117.182 62.7653 116.873 62.904 116.51 63C116.158 63.0853 115.79 63.128 115.406 63.128ZM110.862 56.504V54.584H116.83V56.504H110.862ZM122.846 63.128C121.865 63.128 121.001 62.936 120.254 62.552C119.518 62.168 118.947 61.6453 118.542 60.984C118.137 60.312 117.934 59.5493 117.934 58.696C117.934 57.832 118.131 57.0693 118.526 56.408C118.931 55.736 119.481 55.2133 120.174 54.84C120.867 54.456 121.651 54.264 122.526 54.264C123.369 54.264 124.126 54.4453 124.798 54.808C125.481 55.16 126.019 55.672 126.414 56.344C126.809 57.0053 127.006 57.8 127.006 58.728C127.006 58.824 127.001 58.936 126.99 59.064C126.979 59.1813 126.969 59.2933 126.958 59.4H119.966V57.944H125.646L124.686 58.376C124.686 57.928 124.595 57.5387 124.414 57.208C124.233 56.8773 123.982 56.6213 123.662 56.44C123.342 56.248 122.969 56.152 122.542 56.152C122.115 56.152 121.737 56.248 121.406 56.44C121.086 56.6213 120.835 56.8827 120.654 57.224C120.473 57.5547 120.382 57.9493 120.382 58.408V58.792C120.382 59.2613 120.483 59.6773 120.686 60.04C120.899 60.392 121.193 60.664 121.566 60.856C121.95 61.0373 122.398 61.128 122.91 61.128C123.369 61.128 123.769 61.0587 124.11 60.92C124.462 60.7813 124.782 60.5733 125.07 60.296L126.398 61.736C126.003 62.184 125.507 62.5307 124.91 62.776C124.313 63.0107 123.625 63.128 122.846 63.128ZM131.564 63.128C130.828 63.128 130.118 63.0427 129.436 62.872C128.764 62.6907 128.23 62.4667 127.836 62.2L128.668 60.408C129.062 60.6533 129.526 60.856 130.06 61.016C130.604 61.1653 131.137 61.24 131.66 61.24C132.236 61.24 132.641 61.1707 132.876 61.032C133.121 60.8933 133.244 60.7013 133.244 60.456C133.244 60.2533 133.148 60.104 132.956 60.008C132.774 59.9013 132.529 59.8213 132.22 59.768C131.91 59.7147 131.569 59.6613 131.196 59.608C130.833 59.5547 130.465 59.4853 130.092 59.4C129.718 59.304 129.377 59.1653 129.068 58.984C128.758 58.8027 128.508 58.5573 128.316 58.248C128.134 57.9387 128.044 57.5387 128.044 57.048C128.044 56.504 128.198 56.024 128.508 55.608C128.828 55.192 129.286 54.8667 129.884 54.632C130.481 54.3867 131.196 54.264 132.028 54.264C132.614 54.264 133.212 54.328 133.82 54.456C134.428 54.584 134.934 54.7707 135.34 55.016L134.508 56.792C134.092 56.5467 133.67 56.3813 133.244 56.296C132.828 56.2 132.422 56.152 132.028 56.152C131.473 56.152 131.068 56.2267 130.812 56.376C130.556 56.5253 130.428 56.7173 130.428 56.952C130.428 57.1653 130.518 57.3253 130.7 57.432C130.892 57.5387 131.142 57.624 131.452 57.688C131.761 57.752 132.097 57.8107 132.46 57.864C132.833 57.9067 133.206 57.976 133.58 58.072C133.953 58.168 134.289 58.3067 134.588 58.488C134.897 58.6587 135.148 58.8987 135.34 59.208C135.532 59.5067 135.628 59.9013 135.628 60.392C135.628 60.9253 135.468 61.4 135.148 61.816C134.828 62.2213 134.364 62.5413 133.756 62.776C133.158 63.0107 132.428 63.128 131.564 63.128ZM140.688 63.128C139.674 63.128 138.885 62.872 138.32 62.36C137.754 61.8373 137.472 61.064 137.472 60.04V52.488H139.968V60.008C139.968 60.3707 140.064 60.6533 140.256 60.856C140.448 61.048 140.709 61.144 141.04 61.144C141.434 61.144 141.77 61.0373 142.048 60.824L142.72 62.584C142.464 62.7653 142.154 62.904 141.792 63C141.44 63.0853 141.072 63.128 140.688 63.128ZM136.144 56.504V54.584H142.112V56.504H136.144Z" fill="black"/>
<path d="M160.353 49H162.953V63H160.353V49ZM153.113 63H150.513V49H153.113V63ZM160.553 57H152.893V54.78H160.553V57ZM166.704 63V49H172.464C173.704 49 174.764 49.2 175.644 49.6C176.538 50 177.224 50.5733 177.704 51.32C178.184 52.0667 178.424 52.9533 178.424 53.98C178.424 55.0067 178.184 55.8933 177.704 56.64C177.224 57.3733 176.538 57.94 175.644 58.34C174.764 58.7267 173.704 58.92 172.464 58.92H168.144L169.304 57.74V63H166.704ZM175.864 63L172.324 57.92H175.104L178.664 63H175.864ZM169.304 58.02L168.144 56.78H172.344C173.491 56.78 174.351 56.5333 174.924 56.04C175.511 55.5467 175.804 54.86 175.804 53.98C175.804 53.0867 175.511 52.4 174.924 51.92C174.351 51.44 173.491 51.2 172.344 51.2H168.144L169.304 49.92V58.02ZM186.86 63V49H189L197.78 59.78H196.72V49H199.3V63H197.16L188.38 52.22H189.44V63H186.86ZM207.832 63.14C206.645 63.14 205.605 62.9067 204.712 62.44C203.832 61.96 203.145 61.3067 202.652 60.48C202.172 59.6533 201.932 58.7133 201.932 57.66C201.932 56.5933 202.165 55.6533 202.632 54.84C203.112 54.0133 203.765 53.3667 204.592 52.9C205.432 52.4333 206.385 52.2 207.452 52.2C208.492 52.2 209.419 52.4267 210.232 52.88C211.045 53.3333 211.685 53.9733 212.152 54.8C212.619 55.6267 212.852 56.6 212.852 57.72C212.852 57.8267 212.845 57.9467 212.832 58.08C212.832 58.2133 212.825 58.34 212.812 58.46H203.912V56.8H211.492L210.512 57.32C210.525 56.7067 210.399 56.1667 210.132 55.7C209.865 55.2333 209.499 54.8667 209.032 54.6C208.579 54.3333 208.052 54.2 207.452 54.2C206.839 54.2 206.299 54.3333 205.832 54.6C205.379 54.8667 205.019 55.24 204.752 55.72C204.499 56.1867 204.372 56.74 204.372 57.38V57.78C204.372 58.42 204.519 58.9867 204.812 59.48C205.105 59.9733 205.519 60.3533 206.052 60.62C206.585 60.8867 207.199 61.02 207.892 61.02C208.492 61.02 209.032 60.9267 209.512 60.74C209.992 60.5533 210.419 60.26 210.792 59.86L212.132 61.4C211.652 61.96 211.045 62.3933 210.312 62.7C209.592 62.9933 208.765 63.14 207.832 63.14ZM217.418 63L213.498 52.32H215.858L219.218 61.74H218.098L221.618 52.32H223.718L227.138 61.74H226.038L229.498 52.32H231.718L227.778 63H225.378L222.258 54.66H222.998L219.818 63H217.418ZM236.6 63.14C235.707 63.14 234.847 63.0267 234.02 62.8C233.207 62.56 232.56 62.2733 232.08 61.94L233.04 60.04C233.52 60.3467 234.093 60.6 234.76 60.8C235.427 61 236.093 61.1 236.76 61.1C237.547 61.1 238.113 60.9933 238.46 60.78C238.82 60.5667 239 60.28 239 59.92C239 59.6267 238.88 59.4067 238.64 59.26C238.4 59.1 238.087 58.98 237.7 58.9C237.313 58.82 236.88 58.7467 236.4 58.68C235.933 58.6133 235.46 58.5267 234.98 58.42C234.513 58.3 234.087 58.1333 233.7 57.92C233.313 57.6933 233 57.3933 232.76 57.02C232.52 56.6467 232.4 56.1533 232.4 55.54C232.4 54.86 232.593 54.2733 232.98 53.78C233.367 53.2733 233.907 52.8867 234.6 52.62C235.307 52.34 236.14 52.2 237.1 52.2C237.82 52.2 238.547 52.28 239.28 52.44C240.013 52.6 240.62 52.8267 241.1 53.12L240.14 55.02C239.633 54.7133 239.12 54.5067 238.6 54.4C238.093 54.28 237.587 54.22 237.08 54.22C236.32 54.22 235.753 54.3333 235.38 54.56C235.02 54.7867 234.84 55.0733 234.84 55.42C234.84 55.74 234.96 55.98 235.2 56.14C235.44 56.3 235.753 56.4267 236.14 56.52C236.527 56.6133 236.953 56.6933 237.42 56.76C237.9 56.8133 238.373 56.9 238.84 57.02C239.307 57.14 239.733 57.3067 240.12 57.52C240.52 57.72 240.84 58.0067 241.08 58.38C241.32 58.7533 241.44 59.24 241.44 59.84C241.44 60.5067 241.24 61.0867 240.84 61.58C240.453 62.0733 239.9 62.46 239.18 62.74C238.46 63.0067 237.6 63.14 236.6 63.14Z" fill="url(#paint1_linear_689_444)"/>
<path d="M160.353 49H162.953V63H160.353V49ZM153.113 63H150.513V49H153.113V63ZM160.553 57H152.893V54.78H160.553V57ZM166.704 63V49H172.464C173.704 49 174.764 49.2 175.644 49.6C176.538 50 177.224 50.5733 177.704 51.32C178.184 52.0667 178.424 52.9533 178.424 53.98C178.424 55.0067 178.184 55.8933 177.704 56.64C177.224 57.3733 176.538 57.94 175.644 58.34C174.764 58.7267 173.704 58.92 172.464 58.92H168.144L169.304 57.74V63H166.704ZM175.864 63L172.324 57.92H175.104L178.664 63H175.864ZM169.304 58.02L168.144 56.78H172.344C173.491 56.78 174.351 56.5333 174.924 56.04C175.511 55.5467 175.804 54.86 175.804 53.98C175.804 53.0867 175.511 52.4 174.924 51.92C174.351 51.44 173.491 51.2 172.344 51.2H168.144L169.304 49.92V58.02ZM186.86 63V49H189L197.78 59.78H196.72V49H199.3V63H197.16L188.38 52.22H189.44V63H186.86ZM207.832 63.14C206.645 63.14 205.605 62.9067 204.712 62.44C203.832 61.96 203.145 61.3067 202.652 60.48C202.172 59.6533 201.932 58.7133 201.932 57.66C201.932 56.5933 202.165 55.6533 202.632 54.84C203.112 54.0133 203.765 53.3667 204.592 52.9C205.432 52.4333 206.385 52.2 207.452 52.2C208.492 52.2 209.419 52.4267 210.232 52.88C211.045 53.3333 211.685 53.9733 212.152 54.8C212.619 55.6267 212.852 56.6 212.852 57.72C212.852 57.8267 212.845 57.9467 212.832 58.08C212.832 58.2133 212.825 58.34 212.812 58.46H203.912V56.8H211.492L210.512 57.32C210.525 56.7067 210.399 56.1667 210.132 55.7C209.865 55.2333 209.499 54.8667 209.032 54.6C208.579 54.3333 208.052 54.2 207.452 54.2C206.839 54.2 206.299 54.3333 205.832 54.6C205.379 54.8667 205.019 55.24 204.752 55.72C204.499 56.1867 204.372 56.74 204.372 57.38V57.78C204.372 58.42 204.519 58.9867 204.812 59.48C205.105 59.9733 205.519 60.3533 206.052 60.62C206.585 60.8867 207.199 61.02 207.892 61.02C208.492 61.02 209.032 60.9267 209.512 60.74C209.992 60.5533 210.419 60.26 210.792 59.86L212.132 61.4C211.652 61.96 211.045 62.3933 210.312 62.7C209.592 62.9933 208.765 63.14 207.832 63.14ZM217.418 63L213.498 52.32H215.858L219.218 61.74H218.098L221.618 52.32H223.718L227.138 61.74H226.038L229.498 52.32H231.718L227.778 63H225.378L222.258 54.66H222.998L219.818 63H217.418ZM236.6 63.14C235.707 63.14 234.847 63.0267 234.02 62.8C233.207 62.56 232.56 62.2733 232.08 61.94L233.04 60.04C233.52 60.3467 234.093 60.6 234.76 60.8C235.427 61 236.093 61.1 236.76 61.1C237.547 61.1 238.113 60.9933 238.46 60.78C238.82 60.5667 239 60.28 239 59.92C239 59.6267 238.88 59.4067 238.64 59.26C238.4 59.1 238.087 58.98 237.7 58.9C237.313 58.82 236.88 58.7467 236.4 58.68C235.933 58.6133 235.46 58.5267 234.98 58.42C234.513 58.3 234.087 58.1333 233.7 57.92C233.313 57.6933 233 57.3933 232.76 57.02C232.52 56.6467 232.4 56.1533 232.4 55.54C232.4 54.86 232.593 54.2733 232.98 53.78C233.367 53.2733 233.907 52.8867 234.6 52.62C235.307 52.34 236.14 52.2 237.1 52.2C237.82 52.2 238.547 52.28 239.28 52.44C240.013 52.6 240.62 52.8267 241.1 53.12L240.14 55.02C239.633 54.7133 239.12 54.5067 238.6 54.4C238.093 54.28 237.587 54.22 237.08 54.22C236.32 54.22 235.753 54.3333 235.38 54.56C235.02 54.7867 234.84 55.0733 234.84 55.42C234.84 55.74 234.96 55.98 235.2 56.14C235.44 56.3 235.753 56.4267 236.14 56.52C236.527 56.6133 236.953 56.6933 237.42 56.76C237.9 56.8133 238.373 56.9 238.84 57.02C239.307 57.14 239.733 57.3067 240.12 57.52C240.52 57.72 240.84 58.0067 241.08 58.38C241.32 58.7533 241.44 59.24 241.44 59.84C241.44 60.5067 241.24 61.0867 240.84 61.58C240.453 62.0733 239.9 62.46 239.18 62.74C238.46 63.0067 237.6 63.14 236.6 63.14Z" fill="white"/>
<path d="M21 76H242" stroke="black"/>
<rect x="17" y="90" width="68" height="22" fill="white"/>
<path d="M22.846 104V97.7H24.016V103.01H27.31V104H22.846ZM30.3408 104.063C29.8068 104.063 29.3388 103.958 28.9368 103.748C28.5408 103.532 28.2318 103.238 28.0098 102.866C27.7938 102.494 27.6858 102.071 27.6858 101.597C27.6858 101.117 27.7908 100.694 28.0008 100.328C28.2168 99.956 28.5108 99.665 28.8828 99.455C29.2608 99.245 29.6898 99.14 30.1698 99.14C30.6378 99.14 31.0548 99.242 31.4208 99.446C31.7868 99.65 32.0748 99.938 32.2848 100.31C32.4948 100.682 32.5998 101.12 32.5998 101.624C32.5998 101.672 32.5968 101.726 32.5908 101.786C32.5908 101.846 32.5878 101.903 32.5818 101.957H28.5768V101.21H31.9878L31.5468 101.444C31.5528 101.168 31.4958 100.925 31.3758 100.715C31.2558 100.505 31.0908 100.34 30.8808 100.22C30.6768 100.1 30.4398 100.04 30.1698 100.04C29.8938 100.04 29.6508 100.1 29.4408 100.22C29.2368 100.34 29.0748 100.508 28.9548 100.724C28.8408 100.934 28.7838 101.183 28.7838 101.471V101.651C28.7838 101.939 28.8498 102.194 28.9818 102.416C29.1138 102.638 29.2998 102.809 29.5398 102.929C29.7798 103.049 30.0558 103.109 30.3678 103.109C30.6378 103.109 30.8808 103.067 31.0968 102.983C31.3128 102.899 31.5048 102.767 31.6728 102.587L32.2758 103.28C32.0598 103.532 31.7868 103.727 31.4568 103.865C31.1328 103.997 30.7608 104.063 30.3408 104.063ZM36.5095 104V103.028L36.4465 102.821V101.12C36.4465 100.79 36.3475 100.535 36.1495 100.355C35.9515 100.169 35.6515 100.076 35.2495 100.076C34.9795 100.076 34.7125 100.118 34.4485 100.202C34.1905 100.286 33.9715 100.403 33.7915 100.553L33.3505 99.734C33.6085 99.536 33.9145 99.389 34.2685 99.293C34.6285 99.191 35.0005 99.14 35.3845 99.14C36.0805 99.14 36.6175 99.308 36.9955 99.644C37.3795 99.974 37.5715 100.487 37.5715 101.183V104H36.5095ZM34.9975 104.063C34.6375 104.063 34.3225 104.003 34.0525 103.883C33.7825 103.757 33.5725 103.586 33.4225 103.37C33.2785 103.148 33.2065 102.899 33.2065 102.623C33.2065 102.353 33.2695 102.11 33.3955 101.894C33.5275 101.678 33.7405 101.507 34.0345 101.381C34.3285 101.255 34.7185 101.192 35.2045 101.192H36.5995V101.939H35.2855C34.9015 101.939 34.6435 102.002 34.5115 102.128C34.3795 102.248 34.3135 102.398 34.3135 102.578C34.3135 102.782 34.3945 102.944 34.5565 103.064C34.7185 103.184 34.9435 103.244 35.2315 103.244C35.5075 103.244 35.7535 103.181 35.9695 103.055C36.1915 102.929 36.3505 102.743 36.4465 102.497L36.6355 103.172C36.5275 103.454 36.3325 103.673 36.0505 103.829C35.7745 103.985 35.4235 104.063 34.9975 104.063ZM39.0153 104V99.194H40.0863V100.517L39.9603 100.13C40.1043 99.806 40.3293 99.56 40.6353 99.392C40.9473 99.224 41.3343 99.14 41.7963 99.14V100.211C41.7483 100.199 41.7033 100.193 41.6613 100.193C41.6193 100.187 41.5773 100.184 41.5353 100.184C41.1093 100.184 40.7703 100.31 40.5183 100.562C40.2663 100.808 40.1403 101.177 40.1403 101.669V104H39.0153ZM45.4777 99.14C45.8617 99.14 46.2037 99.215 46.5037 99.365C46.8097 99.515 47.0497 99.746 47.2237 100.058C47.3977 100.364 47.4847 100.76 47.4847 101.246V104H46.3597V101.39C46.3597 100.964 46.2577 100.646 46.0537 100.436C45.8557 100.226 45.5767 100.121 45.2167 100.121C44.9527 100.121 44.7187 100.175 44.5147 100.283C44.3107 100.391 44.1517 100.553 44.0377 100.769C43.9297 100.979 43.8757 101.246 43.8757 101.57V104H42.7507V99.194H43.8217V100.49L43.6327 100.094C43.8007 99.788 44.0437 99.554 44.3617 99.392C44.6857 99.224 45.0577 99.14 45.4777 99.14ZM57.4651 99.14C57.8491 99.14 58.1881 99.215 58.4821 99.365C58.7821 99.515 59.0161 99.746 59.1841 100.058C59.3521 100.364 59.4361 100.76 59.4361 101.246V104H58.3111V101.39C58.3111 100.964 58.2181 100.646 58.0321 100.436C57.8461 100.226 57.5791 100.121 57.2311 100.121C56.9851 100.121 56.7661 100.175 56.5741 100.283C56.3881 100.391 56.2411 100.55 56.1331 100.76C56.0311 100.97 55.9801 101.237 55.9801 101.561V104H54.8551V101.39C54.8551 100.964 54.7621 100.646 54.5761 100.436C54.3901 100.226 54.1231 100.121 53.7751 100.121C53.5291 100.121 53.3101 100.175 53.1181 100.283C52.9321 100.391 52.7851 100.55 52.6771 100.76C52.5751 100.97 52.5241 101.237 52.5241 101.561V104H51.3991V99.194H52.4701V100.472L52.2811 100.094C52.4431 99.782 52.6771 99.545 52.9831 99.383C53.2951 99.221 53.6491 99.14 54.0451 99.14C54.4951 99.14 54.8851 99.251 55.2151 99.473C55.5511 99.695 55.7731 100.031 55.8811 100.481L55.4401 100.328C55.5961 99.968 55.8541 99.68 56.2141 99.464C56.5741 99.248 56.9911 99.14 57.4651 99.14ZM63.0425 104.063C62.5505 104.063 62.1125 103.958 61.7285 103.748C61.3445 103.532 61.0415 103.238 60.8195 102.866C60.5975 102.494 60.4865 102.071 60.4865 101.597C60.4865 101.117 60.5975 100.694 60.8195 100.328C61.0415 99.956 61.3445 99.665 61.7285 99.455C62.1125 99.245 62.5505 99.14 63.0425 99.14C63.5405 99.14 63.9815 99.245 64.3655 99.455C64.7555 99.665 65.0585 99.953 65.2745 100.319C65.4965 100.685 65.6075 101.111 65.6075 101.597C65.6075 102.071 65.4965 102.494 65.2745 102.866C65.0585 103.238 64.7555 103.532 64.3655 103.748C63.9815 103.958 63.5405 104.063 63.0425 104.063ZM63.0425 103.1C63.3185 103.1 63.5645 103.04 63.7805 102.92C63.9965 102.8 64.1645 102.626 64.2845 102.398C64.4105 102.17 64.4735 101.903 64.4735 101.597C64.4735 101.285 64.4105 101.018 64.2845 100.796C64.1645 100.568 63.9965 100.394 63.7805 100.274C63.5645 100.154 63.3215 100.094 63.0515 100.094C62.7755 100.094 62.5295 100.154 62.3135 100.274C62.1035 100.394 61.9355 100.568 61.8095 100.796C61.6835 101.018 61.6205 101.285 61.6205 101.597C61.6205 101.903 61.6835 102.17 61.8095 102.398C61.9355 102.626 62.1035 102.8 62.3135 102.92C62.5295 103.04 62.7725 103.1 63.0425 103.1ZM66.6833 104V99.194H67.7543V100.517L67.6283 100.13C67.7723 99.806 67.9973 99.56 68.3033 99.392C68.6153 99.224 69.0023 99.14 69.4643 99.14V100.211C69.4163 100.199 69.3713 100.193 69.3293 100.193C69.2873 100.187 69.2453 100.184 69.2033 100.184C68.7773 100.184 68.4383 100.31 68.1863 100.562C67.9343 100.808 67.8083 101.177 67.8083 101.669V104H66.6833ZM72.6337 104.063C72.0997 104.063 71.6317 103.958 71.2297 103.748C70.8337 103.532 70.5247 103.238 70.3027 102.866C70.0867 102.494 69.9787 102.071 69.9787 101.597C69.9787 101.117 70.0837 100.694 70.2937 100.328C70.5097 99.956 70.8037 99.665 71.1757 99.455C71.5537 99.245 71.9827 99.14 72.4627 99.14C72.9307 99.14 73.3477 99.242 73.7137 99.446C74.0797 99.65 74.3677 99.938 74.5777 100.31C74.7877 100.682 74.8927 101.12 74.8927 101.624C74.8927 101.672 74.8897 101.726 74.8837 101.786C74.8837 101.846 74.8807 101.903 74.8747 101.957H70.8697V101.21H74.2807L73.8397 101.444C73.8457 101.168 73.7887 100.925 73.6687 100.715C73.5487 100.505 73.3837 100.34 73.1737 100.22C72.9697 100.1 72.7327 100.04 72.4627 100.04C72.1867 100.04 71.9437 100.1 71.7337 100.22C71.5297 100.34 71.3677 100.508 71.2477 100.724C71.1337 100.934 71.0767 101.183 71.0767 101.471V101.651C71.0767 101.939 71.1427 102.194 71.2747 102.416C71.4067 102.638 71.5927 102.809 71.8327 102.929C72.0727 103.049 72.3487 103.109 72.6607 103.109C72.9307 103.109 73.1737 103.067 73.3897 102.983C73.6057 102.899 73.7977 102.767 73.9657 102.587L74.5687 103.28C74.3527 103.532 74.0797 103.727 73.7497 103.865C73.4257 103.997 73.0537 104.063 72.6337 104.063Z" fill="black"/>
<path fill-rule="evenodd" clip-rule="evenodd" d="M78 97.875L78.8167 97L82.3167 100.75L78.8167 104.5L78 103.625L80.6833 100.75L78 97.875Z" fill="black"/>
<defs>
<linearGradient id="paint0_linear_689_444" x1="33.5" y1="3.50001" x2="375.5" y2="130" gradientUnits="userSpaceOnUse">
<stop offset="0.328518" stop-color="#59A0D5"/>
<stop offset="0.8125" stop-color="#99C368"/>
</linearGradient>
<linearGradient id="paint1_linear_689_444" x1="34" y1="47.6" x2="38.3229" y2="90.5283" gradientUnits="userSpaceOnUse">
<stop offset="0.260407" stop-color="#5FAAD9"/>
<stop offset="1" stop-color="#A3CD68"/>
</linearGradient>
</defs>
</svg>
